<svg width="21" height="20" viewBox="0 0 21 20" fill="none" xmlns="http://www.w3.org/2000/svg">
<path d="M8.36247 17.1397C5.50533 18.1041 3.12438 17.1397 1.6958 14.1667" stroke="currentcolor" stroke-width="1.25" stroke-linecap="round" stroke-linejoin="round"/>
<path d="M8.36247 18.3334V15.6317C8.36247 15.1331 8.51572 14.6997 8.7628 14.3083C8.9323 14.0397 8.81622 13.6587 8.51005 13.5746C5.97408 12.8774 4.1958 11.7565 4.1958 8.03846C4.1958 7.07184 4.51251 6.16305 5.06923 5.37208C5.20778 5.17523 5.27704 5.07681 5.2937 4.98766C5.31035 4.89852 5.2814 4.78218 5.22348 4.54951C4.98778 3.60251 5.00306 2.5969 5.35682 1.69027C5.35682 1.69027 6.08782 1.4521 7.75162 2.49149C8.13148 2.7288 8.32143 2.84746 8.48872 2.874C8.65597 2.90055 8.87963 2.84495 9.32688 2.73375C9.93855 2.5817 10.5688 2.50008 11.2791 2.50008C11.9895 2.50008 12.6197 2.5817 13.2314 2.73375C13.6786 2.84495 13.9023 2.90055 14.0695 2.874C14.2369 2.84746 14.4268 2.7288 14.8066 2.49149C16.4705 1.4521 17.2015 1.69027 17.2015 1.69027C17.5552 2.5969 17.5705 3.60251 17.3348 4.54951C17.2769 4.78218 17.2479 4.89852 17.2646 4.98766C17.2812 5.0768 17.3505 5.17524 17.4891 5.37208C18.0457 6.16305 18.3625 7.07184 18.3625 8.03846C18.3625 11.7565 16.5842 12.8774 14.0482 13.5746C13.7421 13.6587 13.626 14.0397 13.7955 14.3083C14.0426 14.6997 14.1958 15.1331 14.1958 15.6317V18.3334" stroke="black" stroke-width="1.25" stroke-linecap="round" stroke-linejoin="round"/>
</svg>
