<svg width="37" height="36" viewBox="0 0 37 36" fill="none" xmlns="http://www.w3.org/2000/svg">
<rect x="0.529297" y="0.5" width="35" height="35" rx="17.5" fill="white"/>
<rect x="0.529297" y="0.5" width="35" height="35" rx="17.5" stroke="#EFEFFF"/>
<path d="M16.3625 25.1397C13.5053 26.1041 11.1244 25.1397 9.6958 22.1667" stroke="black" stroke-width="1.25" stroke-linecap="round" stroke-linejoin="round"/>
<path d="M16.3625 26.3334V23.6317C16.3625 23.1331 16.5157 22.6997 16.7628 22.3083C16.9323 22.0397 16.8162 21.6587 16.5101 21.5746C13.9741 20.8774 12.1958 19.7565 12.1958 16.0385C12.1958 15.0718 12.5125 14.163 13.0692 13.3721C13.2078 13.1752 13.277 13.0768 13.2937 12.9877C13.3104 12.8985 13.2814 12.7822 13.2235 12.5495C12.9878 11.6025 13.0031 10.5969 13.3568 9.69027C13.3568 9.69027 14.0878 9.4521 15.7516 10.4915C16.1315 10.7288 16.3214 10.8475 16.4887 10.874C16.656 10.9005 16.8796 10.8449 17.3269 10.7338C17.9386 10.5817 18.5688 10.5001 19.2791 10.5001C19.9895 10.5001 20.6197 10.5817 21.2314 10.7338C21.6786 10.8449 21.9023 10.9005 22.0695 10.874C22.2369 10.8475 22.4268 10.7288 22.8066 10.4915C24.4705 9.4521 25.2015 9.69027 25.2015 9.69027C25.5552 10.5969 25.5705 11.6025 25.3348 12.5495C25.2769 12.7822 25.2479 12.8985 25.2646 12.9877C25.2812 13.0768 25.3505 13.1752 25.4891 13.3721C26.0457 14.163 26.3625 15.0718 26.3625 16.0385C26.3625 19.7565 24.5842 20.8774 22.0482 21.5746C21.7421 21.6587 21.626 22.0397 21.7955 22.3083C22.0426 22.6997 22.1958 23.1331 22.1958 23.6317V26.3334" stroke="black" stroke-width="1.25" stroke-linecap="round" stroke-linejoin="round"/>
</svg>
