<svg width="20" height="20" viewBox="0 0 20 20" fill="none" xmlns="http://www.w3.org/2000/svg">
<path d="M14.1665 9.00375C14.1665 8.71567 14.1665 8.57167 14.2098 8.44333C14.3358 8.07037 14.668 7.92563 15.0008 7.77407C15.3748 7.60368 15.5618 7.51849 15.7472 7.5035C15.9576 7.48648 16.1683 7.53182 16.3482 7.63274C16.5866 7.76653 16.7528 8.02078 16.9231 8.22752C17.7093 9.18233 18.1023 9.65983 18.2461 10.1863C18.3622 10.6112 18.3622 11.0555 18.2461 11.4803C18.0363 12.2482 17.3736 12.892 16.883 13.4878C16.6321 13.7926 16.5066 13.945 16.3482 14.0339C16.1683 14.1348 15.9576 14.1802 15.7472 14.1632C15.5618 14.1482 15.3748 14.063 15.0008 13.8926C14.668 13.741 14.3358 13.5963 14.2098 13.2233C14.1665 13.095 14.1665 12.951 14.1665 12.6629V9.00375Z" stroke="#090909" stroke-width="1.25"/>
<path d="M5.83317 9.00384C5.83317 8.64117 5.82299 8.31518 5.52976 8.06017C5.42311 7.96742 5.28171 7.90301 4.99893 7.77421C4.62485 7.60382 4.4378 7.51863 4.25247 7.50364C3.69643 7.45867 3.39727 7.83818 3.07661 8.22765C2.29046 9.1825 1.89739 9.65992 1.75355 10.1864C1.63749 10.6113 1.63749 11.0557 1.75355 11.4805C1.96334 12.2484 2.6261 12.8921 3.11668 13.488C3.42591 13.8636 3.72131 14.2063 4.25247 14.1633C4.4378 14.1483 4.62485 14.0631 4.99893 13.8928C5.28171 13.7639 5.42311 13.6995 5.52976 13.6068C5.82299 13.3518 5.83317 13.0258 5.83317 12.6631V9.00384Z" stroke="#090909" stroke-width="1.25"/>
<path d="M4.1665 7.5C4.1665 4.73857 6.77818 2.5 9.99984 2.5C13.2215 2.5 15.8332 4.73857 15.8332 7.5" stroke="#090909" stroke-width="1.25" stroke-linecap="square" stroke-linejoin="round"/>
<path d="M15.8335 14.1666V14.8333C15.8335 16.306 14.3411 17.5 12.5002 17.5H10.8335" stroke="#090909" stroke-width="1.25" stroke-linecap="round" stroke-linejoin="round"/>
</svg>
