<svg width="20" height="20" viewBox="0 0 20 20" fill="none" xmlns="http://www.w3.org/2000/svg">
<path d="M17.0832 13.75V7.08329C17.0832 5.11911 17.0832 4.13702 16.4729 3.52682C15.8628 2.91663 14.8807 2.91663 12.9165 2.91663H7.08317C5.11899 2.91663 4.13689 2.91663 3.5267 3.52682C2.9165 4.13702 2.9165 5.11911 2.9165 7.08329V13.75" stroke="#090909" stroke-width="1.25" stroke-linecap="round" stroke-linejoin="round"/>
<path d="M18.3202 17.0833H1.67983C1.36071 17.0833 1.15316 16.7573 1.29588 16.4803L2.91667 13.75H17.0834L18.7041 16.4803C18.8469 16.7573 18.6393 17.0833 18.3202 17.0833Z" stroke="#090909" stroke-width="1.25" stroke-linecap="round" stroke-linejoin="round"/>
<path d="M6.25 8.33333H7.91667L9.16668 10.4167L10.8333 6.25L12.0833 8.33333H13.75" stroke="#090909" stroke-width="1.25" stroke-linecap="round" stroke-linejoin="round"/>
</svg>
