<svg width="20" height="20" viewBox="0 0 20 20" fill="none" xmlns="http://www.w3.org/2000/svg">
<path d="M2.0835 10C2.0835 6.26809 2.0835 4.40212 3.24286 3.24274C4.40224 2.08337 6.26821 2.08337 10.0002 2.08337C13.7321 2.08337 15.5981 2.08337 16.7575 3.24274C17.9168 4.40212 17.9168 6.26809 17.9168 10C17.9168 13.732 17.9168 15.598 16.7575 16.7574C15.5981 17.9167 13.7321 17.9167 10.0002 17.9167C6.26821 17.9167 4.40224 17.9167 3.24286 16.7574C2.0835 15.598 2.0835 13.732 2.0835 10Z" stroke="#090909" stroke-width="1.25"/>
<path d="M14.1971 10.0229H8.38409M8.38409 10.0229C8.38409 10.4982 10.1802 12.0957 10.1802 12.0957M8.38409 10.0229C8.38409 9.53516 10.1802 7.96925 10.1802 7.96925M5.86377 6.6626V13.3292" stroke="#090909" stroke-width="1.25" stroke-linecap="round"/>
</svg>
