<svg width="25" height="24" viewBox="0 0 25 24" fill="none" xmlns="http://www.w3.org/2000/svg">
<path d="M12.3203 8.98595V3.31543" stroke="#090909" stroke-width="1.25" stroke-linecap="round" stroke-linejoin="round"/>
<path d="M12.3203 20.6705V15" stroke="#090909" stroke-width="1.25" stroke-linecap="round" stroke-linejoin="round"/>
<path d="M21.0004 12.0001L15.3301 11.9482" stroke="#090909" stroke-width="1.25" stroke-linecap="round" stroke-linejoin="round"/>
<path d="M9.33045 12.0001L3.66016 11.9482" stroke="#090909" stroke-width="1.25" stroke-linecap="round" stroke-linejoin="round"/>
<path d="M15.33 5.99998C15.33 5.99998 13.1205 3.00001 12.33 3C11.5394 2.99999 9.33008 6 9.33008 6" stroke="#090909" stroke-width="1.25" stroke-linecap="round" stroke-linejoin="round"/>
<path d="M6.33006 15C6.33006 15 3.33009 12.7905 3.33008 12C3.33007 11.2094 6.33008 9 6.33008 9" stroke="#090909" stroke-width="1.25" stroke-linecap="round" stroke-linejoin="round"/>
<path d="M18.3301 9C18.3301 9 21.3301 11.2095 21.3301 12C21.3301 12.7906 18.3301 15 18.3301 15" stroke="#090909" stroke-width="1.25" stroke-linecap="round" stroke-linejoin="round"/>
<path d="M9.33008 18C9.33008 18 11.5395 21 12.33 21C13.1206 21 15.33 18 15.33 18" stroke="#090909" stroke-width="1.25" stroke-linecap="round" stroke-linejoin="round"/>
</svg>
