<svg width="20" height="20" viewBox="0 0 20 20" fill="none" xmlns="http://www.w3.org/2000/svg">
<path d="M9.25641 4.64691C9.4745 5.0226 9.5835 5.21044 9.5835 5.41671C9.5835 5.62297 9.4745 5.81082 9.25641 6.18651L8.2152 7.98024C7.99713 8.35596 7.88809 8.54379 7.7085 8.64687C7.5289 8.75004 7.31083 8.75004 6.87469 8.75004H4.7923C4.35616 8.75004 4.13809 8.75004 3.9585 8.64687C3.7789 8.54379 3.66986 8.35596 3.4518 7.98024L2.4106 6.18651C2.19253 5.81082 2.0835 5.62297 2.0835 5.41671C2.0835 5.21044 2.19253 5.0226 2.4106 4.64691L3.4518 2.85317C3.66986 2.47748 3.7789 2.28964 3.9585 2.18651C4.13809 2.08337 4.35616 2.08337 4.7923 2.08337H6.87469C7.31083 2.08337 7.5289 2.08337 7.7085 2.18651C7.88809 2.28964 7.99713 2.47748 8.2152 2.85317L9.25641 4.64691Z" stroke="#090909" stroke-width="1.25" stroke-linecap="round" stroke-linejoin="round"/>
<path d="M17.5894 9.64687C17.8075 10.0226 17.9165 10.2105 17.9165 10.4167C17.9165 10.623 17.8075 10.8108 17.5894 11.1865L16.5482 12.9802C16.3302 13.356 16.2211 13.5438 16.0415 13.6469C15.8619 13.75 15.6438 13.75 15.2077 13.75H13.1253C12.6892 13.75 12.4711 13.75 12.2915 13.6469C12.1119 13.5438 12.0028 13.356 11.7848 12.9802L10.7436 11.1865C10.5255 10.8108 10.4165 10.623 10.4165 10.4167C10.4165 10.2105 10.5255 10.0226 10.7436 9.64687L11.7848 7.85317C12.0028 7.47748 12.1119 7.28964 12.2915 7.18651C12.4711 7.08337 12.6892 7.08337 13.1253 7.08337H15.2077C15.6438 7.08337 15.8619 7.08337 16.0415 7.18651C16.2211 7.28964 16.3302 7.47748 16.5482 7.85317L17.5894 9.64687Z" stroke="#090909" stroke-width="1.25" stroke-linecap="round" stroke-linejoin="round"/>
<path d="M9.25641 13.8135C9.4745 14.1893 9.5835 14.3771 9.5835 14.5833C9.5835 14.7896 9.4745 14.9774 9.25641 15.3532L8.2152 17.1468C7.99713 17.5226 7.88809 17.7104 7.7085 17.8135C7.5289 17.9167 7.31083 17.9167 6.87469 17.9167H4.7923C4.35616 17.9167 4.13809 17.9167 3.9585 17.8135C3.7789 17.7104 3.66986 17.5226 3.4518 17.1468L2.4106 15.3532C2.19253 14.9774 2.0835 14.7896 2.0835 14.5833C2.0835 14.3771 2.19253 14.1893 2.4106 13.8135L3.4518 12.0198C3.66986 11.6441 3.7789 11.4563 3.9585 11.3532C4.13809 11.25 4.35616 11.25 4.7923 11.25H6.87469C7.31083 11.25 7.5289 11.25 7.7085 11.3532C7.88809 11.4563 7.99713 11.6441 8.2152 12.0198L9.25641 13.8135Z" stroke="#090909" stroke-width="1.25" stroke-linecap="round" stroke-linejoin="round"/>
</svg>
