<svg width="20" height="20" viewBox="0 0 20 20" fill="none" xmlns="http://www.w3.org/2000/svg">
<path d="M11.6665 2.5H8.33317C5.19047 2.5 3.61913 2.5 2.64281 3.47631C1.6665 4.45262 1.6665 6.02397 1.6665 9.16667C1.6665 12.3093 1.6665 13.8807 2.64281 14.857C3.61913 15.8333 5.19047 15.8333 8.33317 15.8333H11.6665C14.8092 15.8333 16.3806 15.8333 17.3568 14.857C18.3332 13.8807 18.3332 12.3093 18.3332 9.16667C18.3332 6.02397 18.3332 4.45262 17.3568 3.47631C16.3806 2.5 14.8092 2.5 11.6665 2.5Z" stroke="#090909" stroke-width="1.25" stroke-linecap="round"/>
<path d="M14.0833 12.9167C14.0833 12.1802 14.6802 11.5833 15.4167 11.5833M11.4167 12.9167C11.4167 10.7075 13.2075 8.91667 15.4167 8.91667M8.75 12.9167C8.75 9.23475 11.7347 6.25 15.4167 6.25" stroke="#090909" stroke-width="1.25" stroke-linecap="round"/>
<path d="M15 15.8334L15.8333 17.5" stroke="#090909" stroke-width="1.25" stroke-linecap="round" stroke-linejoin="round"/>
<path d="M4.99984 15.8334L4.1665 17.5" stroke="#090909" stroke-width="1.25" stroke-linecap="round" stroke-linejoin="round"/>
</svg>
