<svg width="20" height="20" viewBox="0 0 20 20" fill="none" xmlns="http://www.w3.org/2000/svg">
<path d="M12.9168 9.16667C12.9168 7.55583 11.611 6.25 10.0002 6.25C8.38933 6.25 7.0835 7.55583 7.0835 9.16667C7.0835 10.7775 8.38933 12.0833 10.0002 12.0833C11.611 12.0833 12.9168 10.7775 12.9168 9.16667Z" stroke="#090909" stroke-width="1.25" stroke-linecap="round" stroke-linejoin="round"/>
<path d="M12.9022 9.45825C13.1705 9.53958 13.4551 9.58333 13.7499 9.58333C15.3607 9.58333 16.6666 8.2775 16.6666 6.66667C16.6666 5.05583 15.3607 3.75 13.7499 3.75C12.2375 3.75 10.9939 4.90117 10.8477 6.37511" stroke="#090909" stroke-width="1.25" stroke-linecap="round" stroke-linejoin="round"/>
<path d="M9.15241 6.37511C9.00616 4.90117 7.7626 3.75 6.25016 3.75C4.63933 3.75 3.3335 5.05583 3.3335 6.66667C3.3335 8.2775 4.63933 9.58333 6.25016 9.58333C6.545 9.58333 6.82962 9.53958 7.09789 9.45825" stroke="#090909" stroke-width="1.25" stroke-linecap="round" stroke-linejoin="round"/>
<path d="M18.3333 13.75C18.3333 11.4489 16.2813 9.58337 13.75 9.58337" stroke="#090909" stroke-width="1.25" stroke-linecap="round" stroke-linejoin="round"/>
<path d="M14.5832 16.25C14.5832 13.9489 12.5312 12.0834 9.99984 12.0834C7.46853 12.0834 5.4165 13.9489 5.4165 16.25" stroke="#090909" stroke-width="1.25" stroke-linecap="round" stroke-linejoin="round"/>
<path d="M6.24984 9.58337C3.71853 9.58337 1.6665 11.4489 1.6665 13.75" stroke="#090909" stroke-width="1.25" stroke-linecap="round" stroke-linejoin="round"/>
</svg>
